# xmcd
#
# Track frame offsets:
#	150
#	17830
#	40915
#	64917
#	84062
#	101872
#	116975
#	136270
#	156645
#	178980
#	197607
#	211567
#	231010
#
# Disc length: 3303 seconds
#
# Revision: 2
# Processed by: cddbd v1.5.1PL2 Copyright (c) Steve Scherf et al.
# Submitted via: audiograbber 1.82.02
#
DISCID=b30ce50d
DTITLE=James Solberg Band - One Of These Days_1996
DYEAR=1996
DGENRE=Blues
TTITLE0=Too Damn Much Lovin'
TTITLE1=Ringin' In My Head
TTITLE2=Litehouse Keeper
TTITLE3=Nobody To Blame
TTITLE4=Can It Be
TTITLE5=Do You Call That A Buddy
TTITLE6=Love Made A Fool Out Of Me
TTITLE7=Everyday
TTITLE8=Ain't No Way
TTITLE9=Cheaper To Keep Her
TTITLE10=One Of These Days
TTITLE11=One False Move
TTITLE12=There Must Be A Better World Somewhere
EXTD=
EXTT0=
EXTT1=
EXTT2=
EXTT3=
EXTT4=
EXTT5=
EXTT6=
EXTT7=
EXTT8=
EXTT9=
EXTT10=
EXTT11=
EXTT12=
PLAYORDER=
